<svg preserveAspectRatio="none" width="100%" height="100%" overflow="visible" style="display: block;" viewBox="0 0 242 133" fill="none" xmlns="http://www.w3.org/2000/svg">
<g id="Vector">
<path d="M231.947 0C237.5 0 242 4.49799 242 10.0443C242 15.5954 237.5 20.0934 231.947 20.0934C214.59 20.0934 200.473 34.2053 200.473 51.555V90.6006C200.473 90.6642 200.465 90.7278 200.46 90.793V100.65H180.372V90.6642C180.372 90.6414 180.368 90.6234 180.368 90.6006V51.555C180.368 23.1258 203.507 0 231.947 0Z" fill="var(--fill-0, #4308AD)"/>
<path d="M157.546 79.4881C163.681 79.4881 168.662 84.4622 168.662 90.6002C168.662 96.7367 163.681 101.711 157.546 101.711C151.405 101.711 146.426 96.7367 146.426 90.6002C146.426 84.4622 151.405 79.4881 157.546 79.4881Z" fill="var(--fill-0, #4308AD)"/>
<path d="M134.718 43.8177V90.604C134.718 90.6317 134.713 90.6594 134.713 90.6871V100.653H114.622V90.7735C114.622 90.7149 114.617 90.6643 114.617 90.604V43.8177C114.617 38.2714 119.117 33.7734 124.665 33.7734C130.218 33.7734 134.718 38.2714 134.718 43.8177Z" fill="var(--fill-0, #4308AD)"/>
<path d="M124.664 0.540358C130.804 0.540358 135.78 5.5144 135.78 11.6525C135.78 17.7889 130.804 22.763 124.664 22.763C118.523 22.763 113.547 17.7889 113.547 11.6525C113.547 5.5144 118.523 0.540358 124.664 0.540358Z" fill="var(--fill-0, #4308AD)"/>
<path d="M100.689 50.3263V90.6045C100.689 96.1557 96.1895 100.654 90.6411 100.654C85.0877 100.654 80.588 96.1557 80.588 90.6045V50.3263C80.588 33.6598 67.0218 20.0973 50.3471 20.0973C33.6691 20.0973 20.1062 33.6598 20.1062 50.3263C20.1062 66.9978 33.6691 80.5553 50.3471 80.5553L63.2641 80.6515V100.73H49.0179C21.8709 100.026 0 77.6338 0 50.3263C0 22.5802 22.5852 0.00385827 50.3471 0.00385827C78.1041 0.00385827 100.689 22.5802 100.689 50.3263Z" fill="var(--fill-0, #4308AD)"/>
<path d="M63.2685 50.3234V63.2354H50.3514C43.2177 63.2354 37.436 57.4543 37.436 50.3234C37.436 43.1925 43.2177 37.4114 50.3514 37.4114C57.4868 37.4114 63.2685 43.1925 63.2685 50.3234Z" fill="#B900C2"/>
<path d="M46.9677 116.259C49.9313 116.259 51.7025 117.837 51.7025 120.502C51.7025 123.201 49.8787 124.901 46.9677 124.901H44.8458V128.881H42.7941V116.259H46.9677ZM47.0729 123.008C48.5986 123.008 49.6332 122.009 49.6332 120.502C49.6332 119.047 48.6512 118.153 47.0729 118.153H44.8458V123.008H47.0729Z" fill="var(--fill-0, #4308AD)"/>
<path d="M58.332 129.144C55.4385 129.144 53.4745 127.093 53.4745 124.113C53.4745 121.115 55.4561 119.064 58.332 119.064C61.2255 119.064 63.1895 121.115 63.1895 124.113C63.1895 127.11 61.2255 129.144 58.332 129.144ZM58.332 127.233C59.9804 127.233 61.1729 125.918 61.1729 124.113C61.1729 122.29 59.9804 120.975 58.332 120.975C56.6836 120.975 55.4911 122.29 55.4911 124.113C55.4911 125.918 56.6836 127.233 58.332 127.233Z" fill="var(--fill-0, #4308AD)"/>
<path d="M75.7977 119.38H78.0072L75.0261 128.881H72.9919L71.098 122.693L69.1865 128.881H67.1523L64.1711 119.38H66.3807L68.2571 126.164L70.0633 119.643H72.1151L73.9213 126.164L75.7977 119.38Z" fill="var(--fill-0, #4308AD)"/>
<path d="M88.2454 123.745C88.2454 124.2 88.2103 124.691 88.1752 124.884H81.301C81.5816 126.426 82.7215 127.215 84.6329 127.215C85.8604 127.215 87.0704 126.9 87.9122 126.356L87.9648 126.409V128.232C87.1055 128.81 85.8078 129.144 84.4049 129.144C80.8802 129.144 79.1616 126.987 79.1616 123.955C79.1616 120.835 81.1958 119.064 83.8613 119.064C86.5444 119.064 88.2454 120.817 88.2454 123.745ZM81.2484 123.201H86.2462C86.2462 121.886 85.2818 120.957 83.8262 120.957C82.4409 120.957 81.4589 121.764 81.2484 123.201Z" fill="var(--fill-0, #4308AD)"/>
<path d="M90.3429 128.881V123.411C90.3429 120.572 91.7633 119.064 94.4464 119.064C95.253 119.064 96.2701 119.397 96.8137 119.835C96.4104 120.414 96.2175 120.765 96.0246 121.325L95.9545 121.378C95.481 121.115 94.9374 120.975 94.3937 120.975C93.0961 120.975 92.3595 121.904 92.3595 123.587V128.881H90.3429Z" fill="var(--fill-0, #4308AD)"/>
<path d="M106.552 123.745C106.552 124.2 106.516 124.691 106.481 124.884H99.6072C99.8878 126.426 101.028 127.215 102.939 127.215C104.167 127.215 105.377 126.9 106.218 126.356L106.271 126.409V128.232C105.412 128.81 104.114 129.144 102.711 129.144C99.1863 129.144 97.4678 126.987 97.4678 123.955C97.4678 120.835 99.502 119.064 102.167 119.064C104.851 119.064 106.552 120.817 106.552 123.745ZM99.5546 123.201H104.552C104.552 121.886 103.588 120.957 102.132 120.957C100.747 120.957 99.765 121.764 99.5546 123.201Z" fill="var(--fill-0, #4308AD)"/>
<path d="M113.191 129.144C110.333 129.144 108.333 127.075 108.333 124.095C108.333 121.133 110.21 119.064 112.875 119.064C114.173 119.064 115.365 119.643 115.927 120.537H116.014V115.26H118.031V124.025C118.031 127.075 116.067 129.144 113.191 129.144ZM113.191 127.233C114.839 127.233 116.014 125.883 116.014 123.99C116.014 122.184 114.874 120.975 113.156 120.975C111.472 120.975 110.35 122.184 110.35 124.025C110.35 125.883 111.543 127.233 113.191 127.233Z" fill="var(--fill-0, #4308AD)"/>
<path d="M129.655 129.144C126.691 129.144 124.815 127.058 124.815 123.762V115.26H126.831V120.537H126.919C127.498 119.643 128.673 119.064 129.918 119.064C132.601 119.064 134.512 121.15 134.512 124.095C134.512 127.075 132.513 129.144 129.655 129.144ZM129.637 127.233C131.285 127.233 132.495 125.883 132.495 124.025C132.495 122.202 131.356 120.975 129.672 120.975C127.954 120.975 126.831 122.167 126.831 123.99C126.831 125.883 128.006 127.233 129.637 127.233Z" fill="var(--fill-0, #4308AD)"/>
<path d="M140.55 133C139.323 133 138.306 132.684 137.288 132.018V130.125L137.341 130.09C138.341 130.774 139.375 131.107 140.498 131.107C142.304 131.107 143.251 130.213 143.251 128.46V127.548H143.163C142.655 128.442 141.62 129.003 140.463 129.003C138.113 129.003 136.622 127.408 136.622 124.919V119.38H138.639V124.638C138.639 126.216 139.41 127.075 140.831 127.075C142.304 127.075 143.181 126.146 143.181 124.568V119.38H145.197V128.583C145.197 131.37 143.461 133 140.55 133Z" fill="var(--fill-0, #4308AD)"/>
<path d="M187.853 119.457V112.389H189.116V118.005C188.674 118.447 188.232 118.973 187.853 119.457ZM189.726 117.543V112.389H190.967V116.743C190.525 116.933 190.063 117.227 189.726 117.543ZM160.033 129.238C155.488 129.238 152.1 125.83 152.1 121.266C152.1 116.827 155.656 113.378 160.223 113.378C162.138 113.378 163.716 113.819 164.937 114.682V115.923C163.758 115.06 162.117 114.619 160.223 114.619C156.414 114.619 153.426 117.543 153.426 121.266C153.426 125.115 156.267 127.997 160.033 127.997C163.443 127.997 165.526 125.957 165.526 122.654V121.497H160.181V120.277H166.704V122.444C166.704 126.651 164.158 129.238 160.033 129.238ZM160.033 127.366C156.667 127.366 154.057 124.716 154.057 121.266C154.057 117.9 156.793 115.25 160.223 115.25C161.948 115.25 163.695 115.755 164.937 116.617V117.816L164.852 117.879C163.421 116.933 161.991 116.491 160.265 116.491C157.487 116.491 155.446 118.531 155.446 121.266C155.446 124.127 157.34 126.104 160.033 126.104C162.075 126.104 163.59 124.947 163.59 123.411H160.181V122.149H164.895V122.97C164.895 125.578 162.916 127.366 160.033 127.366ZM180.53 129.238C176.974 129.238 174.427 126.714 174.427 123.159C174.427 119.457 177.058 116.68 180.53 116.68C183.981 116.68 186.506 119.267 186.506 122.78V128.881H185.244V122.801C185.244 120.025 183.266 117.984 180.53 117.984C177.71 117.984 175.711 120.13 175.711 123.159C175.711 125.999 177.689 127.997 180.53 127.997C181.477 127.997 182.234 127.766 182.781 127.324V128.565C182.15 129.049 181.519 129.238 180.53 129.238ZM193.977 129.238C191.304 129.238 189.263 127.661 188.568 125.641L189.452 124.442C189.894 126.483 191.788 127.997 193.998 127.997C196.691 127.997 198.669 125.809 198.669 122.97C198.669 120.046 196.649 117.963 193.914 117.963C191.872 117.963 190.568 118.994 189.073 120.824C188.484 121.539 187.832 122.423 187.095 123.411V121.56C188.379 119.73 190.315 116.68 193.914 116.68C197.365 116.68 199.911 119.394 199.911 122.97C199.911 126.483 197.386 129.238 193.977 129.238ZM167.546 128.881V122.381C167.546 119.015 169.713 116.806 172.975 116.806C174.133 116.806 175.185 117.122 175.963 117.69C175.648 117.963 175.416 118.195 175.143 118.531C174.743 118.237 173.817 118.026 173.038 118.026C170.513 118.026 168.788 119.793 168.788 122.36V128.881H167.546ZM193.998 127.387C191.662 127.387 190.126 125.347 189.957 123.832L190.925 122.507H190.967V122.696C190.967 124.505 192.209 126.125 193.998 126.125C195.681 126.125 196.796 124.779 196.796 122.949C196.796 121.161 195.618 119.814 193.892 119.814C192.104 119.814 191.262 121.098 189.873 122.78C189.052 123.769 187.916 125.199 187.095 126.419V124.4C188 123.159 188.8 122.17 189.263 121.539C190.82 119.436 192.209 118.552 193.914 118.552C196.312 118.552 198.08 120.424 198.08 122.949C198.08 125.473 196.333 127.387 193.998 127.387ZM183.413 128.881V122.886C183.413 121.119 182.192 119.814 180.509 119.814C178.804 119.814 177.584 121.224 177.584 123.18C177.584 125.01 178.72 126.125 180.551 126.125C181.414 126.125 182.234 125.873 182.739 125.452L182.781 125.473V126.714C182.192 127.156 181.414 127.387 180.53 127.387C178.026 127.387 176.3 125.683 176.3 123.18C176.3 120.467 178.047 118.573 180.53 118.573C182.908 118.573 184.654 120.361 184.654 122.822V128.881H183.413ZM169.398 128.881V122.36C169.398 120.151 170.892 118.615 173.017 118.615C173.585 118.615 174.238 118.805 174.764 119.099C174.617 119.331 174.49 119.562 174.217 120.151C173.838 119.962 173.438 119.878 172.996 119.878C171.607 119.878 170.639 120.887 170.639 122.381V128.881H169.398Z" fill="var(--fill-0, #4308AD)"/>
</g>
</svg>
