<svg preserveAspectRatio="none" width="100%" height="100%" overflow="visible" style="display: block;" viewBox="0 0 28 28" fill="none" xmlns="http://www.w3.org/2000/svg">
<g id="Frame">
<path id="Vector" d="M4.41358 3.29698L14 1.16667L23.5864 3.29698C24.1202 3.4156 24.5 3.88905 24.5 4.43586V16.087C24.5 18.4275 23.3303 20.6131 21.3829 21.9114L14 26.8333L6.6171 21.9114C4.66971 20.6131 3.5 18.4275 3.5 16.087V4.43586C3.5 3.88905 3.87979 3.4156 4.41358 3.29698ZM5.83333 5.37173V16.087C5.83333 17.6473 6.61313 19.1044 7.9114 19.9699L14 24.029L20.0886 19.9699C21.3869 19.1044 22.1667 17.6473 22.1667 16.087V5.37173L14 3.55692L5.83333 5.37173ZM14 12.8333C12.3892 12.8333 11.0833 11.5275 11.0833 9.91667C11.0833 8.30584 12.3892 7 14 7C15.6108 7 16.9167 8.30584 16.9167 9.91667C16.9167 11.5275 15.6108 12.8333 14 12.8333ZM8.78204 18.6667C9.07222 16.0417 11.2977 14 14 14C16.7023 14 18.9278 16.0417 19.2179 18.6667H8.78204Z" fill="var(--fill-0, #4308AD)"/>
</g>
</svg>
