<svg preserveAspectRatio="none" width="100%" height="100%" overflow="visible" style="display: block;" viewBox="0 0 28 28" fill="none" xmlns="http://www.w3.org/2000/svg">
<g id="Frame">
<path id="Vector" d="M22.1654 23.3333H5.83203V24.5C5.83203 25.1443 5.30969 25.6666 4.66536 25.6666H3.4987C2.85437 25.6666 2.33203 25.1443 2.33203 24.5V12.8333L5.22595 6.08081C5.59363 5.22288 6.43723 4.66663 7.37062 4.66663H20.6268C21.5602 4.66663 22.4037 5.22288 22.7714 6.08081L25.6654 12.8333V24.5C25.6654 25.1443 25.143 25.6666 24.4987 25.6666H23.332C22.6877 25.6666 22.1654 25.1443 22.1654 24.5V23.3333ZM23.332 15.1666H4.66536V21H23.332V15.1666ZM4.87063 12.8333H23.1268L20.6268 6.99996H7.37062L4.87063 12.8333ZM7.58203 19.8333C6.61553 19.8333 5.83203 19.0498 5.83203 18.0833C5.83203 17.1168 6.61553 16.3333 7.58203 16.3333C8.54853 16.3333 9.33203 17.1168 9.33203 18.0833C9.33203 19.0498 8.54853 19.8333 7.58203 19.8333ZM20.4154 19.8333C19.4489 19.8333 18.6654 19.0498 18.6654 18.0833C18.6654 17.1168 19.4489 16.3333 20.4154 16.3333C21.3818 16.3333 22.1654 17.1168 22.1654 18.0833C22.1654 19.0498 21.3818 19.8333 20.4154 19.8333Z" fill="var(--fill-0, #4308AD)"/>
</g>
</svg>
