<svg preserveAspectRatio="none" width="100%" height="100%" overflow="visible" style="display: block;" viewBox="0 0 20 20" fill="none" xmlns="http://www.w3.org/2000/svg">
<g id="Frame">
<path id="Vector" d="M10 17.4162L14.1248 13.2914C16.4028 11.0134 16.4028 7.31993 14.1248 5.04188C11.8468 2.76382 8.15327 2.76382 5.87521 5.04188C3.59715 7.31993 3.59715 11.0134 5.87521 13.2914L10 17.4162ZM10 19.7732L4.6967 14.47C1.76777 11.541 1.76777 6.7923 4.6967 3.86337C7.62563 0.934434 12.3743 0.934434 15.3033 3.86337C18.2323 6.7923 18.2323 11.541 15.3033 14.47L10 19.7732ZM10 10.8333C10.9205 10.8333 11.6667 10.0872 11.6667 9.16667C11.6667 8.24619 10.9205 7.5 10 7.5C9.0795 7.5 8.33333 8.24619 8.33333 9.16667C8.33333 10.0872 9.0795 10.8333 10 10.8333ZM10 12.5C8.15905 12.5 6.66667 11.0076 6.66667 9.16667C6.66667 7.32572 8.15905 5.83333 10 5.83333C11.8409 5.83333 13.3333 7.32572 13.3333 9.16667C13.3333 11.0076 11.8409 12.5 10 12.5Z" fill="var(--fill-0, black)"/>
</g>
</svg>
