<svg width="88" height="35" viewBox="0 0 88 35" fill="none" xmlns="http://www.w3.org/2000/svg">
<path d="M78.5928 0C80.4745 0 81.9993 1.52472 81.9993 3.40479C81.9993 5.28651 80.4745 6.81123 78.5928 6.81123C72.7117 6.81123 67.9281 11.5948 67.9281 17.476V30.7116C67.9281 30.7332 67.9253 30.7547 67.9236 30.7768V34.118H61.1168V30.7332C61.1168 30.7254 61.1157 30.7193 61.1157 30.7116V17.476C61.1157 7.83913 68.956 0 78.5928 0Z" fill="white"/>
<path d="M53.3829 26.9448C55.4619 26.9448 57.1497 28.6309 57.1497 30.7116C57.1497 32.7917 55.4619 34.4778 53.3829 34.4778C51.3022 34.4778 49.615 32.7917 49.615 30.7116C49.615 28.6309 51.3022 26.9448 53.3829 26.9448Z" fill="white"/>
<path d="M45.6518 14.8525V30.7121C45.6518 30.7215 45.6501 30.7309 45.6501 30.7403V34.1185H38.8422V30.7695C38.8422 30.7497 38.8406 30.7325 38.8406 30.7121V14.8525C38.8406 12.9725 40.3653 11.4478 42.2454 11.4478C44.1271 11.4478 45.6518 12.9725 45.6518 14.8525Z" fill="white"/>
<path d="M42.2454 0.182617C44.3261 0.182617 46.0122 1.86871 46.0122 3.94938C46.0122 6.0295 44.3261 7.71559 42.2454 7.71559C40.1648 7.71559 38.4787 6.0295 38.4787 3.94938C38.4787 1.86871 40.1648 0.182617 42.2454 0.182617Z" fill="white"/>
<path d="M34.118 17.0589V30.7123C34.118 32.5941 32.5933 34.1188 30.7133 34.1188C28.8315 34.1188 27.3068 32.5941 27.3068 30.7123V17.0589C27.3068 11.4093 22.71 6.81196 17.0599 6.81196C11.4086 6.81196 6.81289 11.4093 6.81289 17.0589C6.81289 22.7102 11.4086 27.3059 17.0599 27.3059L21.4367 27.3385V34.1448H16.6095C7.41084 33.906 0 26.3156 0 17.0589C0 7.65363 7.65289 0.000732422 17.0599 0.000732422C26.4652 0.000732422 34.118 7.65363 34.118 17.0589Z" fill="white"/>
<path d="M21.4361 17.0585V21.4354H17.0592C14.642 21.4354 12.6829 19.4757 12.6829 17.0585C12.6829 14.6413 14.642 12.6816 17.0592 12.6816C19.477 12.6816 21.4361 14.6413 21.4361 17.0585Z" fill="white"/>
</svg>
