<svg width="26" height="26" viewBox="0 0 26 26" fill="none" xmlns="http://www.w3.org/2000/svg">
<path d="M13 23.8333C7.01687 23.8333 2.16663 18.983 2.16663 13C2.16663 7.01687 7.01687 2.16663 13 2.16663C18.983 2.16663 23.8333 7.01687 23.8333 13C23.8333 18.983 18.983 23.8333 13 23.8333ZM13 21.6666C17.7865 21.6666 21.6666 17.7865 21.6666 13C21.6666 8.21349 17.7865 4.33329 13 4.33329C8.21349 4.33329 4.33329 8.21349 4.33329 13C4.33329 17.7865 8.21349 21.6666 13 21.6666ZM14.0833 13H18.4166V15.1666H11.9166V7.58329H14.0833V13Z" fill="#C6C6C6"/>
</svg>
