<svg width="17" height="17" viewBox="0 0 17 17" fill="none" xmlns="http://www.w3.org/2000/svg">
<path d="M8.33333 16.6667C3.73096 16.6667 0 12.9357 0 8.33333C0 3.73096 3.73096 0 8.33333 0C12.9357 0 16.6667 3.73096 16.6667 8.33333C16.6667 12.9357 12.9357 16.6667 8.33333 16.6667ZM8.33333 15C12.0153 15 15 12.0153 15 8.33333C15 4.65143 12.0153 1.66667 8.33333 1.66667C4.65143 1.66667 1.66667 4.65143 1.66667 8.33333C1.66667 12.0153 4.65143 15 8.33333 15ZM7.5 4.16667H9.16667V5.83333H7.5V4.16667ZM7.5 7.5H9.16667V12.5H7.5V7.5Z" fill="#4E4E4E"/>
</svg>
